<svg xmlns="http://www.w3.org/2000/svg" viewBox="0 0 100 100" width="100" height="100">
  <rect width="100" height="100" rx="26" fill="#2E4636"/>
  <!-- back speech bubble (couch back) -->
  <path d="M22 24h36a10 10 0 0 1 10 10v18a10 10 0 0 1-10 10H35l-9 9 1.5-9H22a10 10 0 0 1-10-10V34a10 10 0 0 1 10-10Z" fill="#B7D3AC"/>
  <!-- front speech bubble (couch seat) -->
  <path d="M48 40h30a10 10 0 0 1 10 10v14a10 10 0 0 1-10 10h-6.5l1.5 8-8-8H48a10 10 0 0 1-10-10V50a10 10 0 0 1 10-10Z" fill="#F1F4EC"/>
  <circle cx="55" cy="57" r="3" fill="#6F9E72"/>
  <circle cx="66" cy="57" r="3" fill="#6F9E72"/>
  <circle cx="77" cy="57" r="3" fill="#6F9E72"/>
</svg>
